<?xml version="1.0" encoding="UTF-8" standalone="no"?>
<svg
   xmlns:osb="http://www.openswatchbook.org/uri/2009/osb"
   xmlns:dc="http://purl.org/dc/elements/1.1/"
   xmlns:cc="http://creativecommons.org/ns#"
   xmlns:rdf="http://www.w3.org/1999/02/22-rdf-syntax-ns#"
   xmlns:svg="http://www.w3.org/2000/svg"
   xmlns="http://www.w3.org/2000/svg"
   xmlns:sodipodi="http://sodipodi.sourceforge.net/DTD/sodipodi-0.dtd"
   xmlns:inkscape="http://www.inkscape.org/namespaces/inkscape"
   width="210mm"
   height="297mm"
   viewBox="0 0 210 297"
   version="1.1"
   id="svg41"
   inkscape:version="1.0.2-2 (e86c870879, 2021-01-15)"
   sodipodi:docname="drawing.svg">
  <defs
     id="defs35">
    <linearGradient
       id="linearGradient875"
       osb:paint="solid">
      <stop
         style="stop-color:#000000;stop-opacity:1;"
         offset="0"
         id="stop873" />
    </linearGradient>
    <linearGradient
       id="linearGradient934"
       osb:paint="gradient">
      <stop
         style="stop-color:#ff0000;stop-opacity:1;"
         offset="0"
         id="stop930" />
      <stop
         style="stop-color:#ff0000;stop-opacity:0;"
         offset="1"
         id="stop932" />
    </linearGradient>
    <linearGradient
       id="linearGradient922"
       osb:paint="solid">
      <stop
         style="stop-color:#000000;stop-opacity:1;"
         offset="0"
         id="stop920" />
    </linearGradient>
  </defs>
  <sodipodi:namedview
     id="base"
     pagecolor="#ffffff"
     bordercolor="#666666"
     borderopacity="1.0"
     inkscape:pageopacity="0.0"
     inkscape:pageshadow="2"
     inkscape:zoom="0.7"
     inkscape:cx="365.63144"
     inkscape:cy="513.02533"
     inkscape:document-units="mm"
     inkscape:current-layer="layer1"
     inkscape:document-rotation="0"
     showgrid="false"
     inkscape:snap-nodes="false"
     inkscape:window-width="1920"
     inkscape:window-height="1013"
     inkscape:window-x="-9"
     inkscape:window-y="-9"
     inkscape:window-maximized="1" />
  <metadata
     id="metadata38">
    <rdf:RDF>
      <cc:Work
         rdf:about="">
        <dc:format>image/svg+xml</dc:format>
        <dc:type
           rdf:resource="http://purl.org/dc/dcmitype/StillImage" />
        <dc:title />
      </cc:Work>
    </rdf:RDF>
  </metadata>
  <g
     inkscape:label="Layer 1"
     inkscape:groupmode="layer"
     id="layer1">
    <path
       style="fill:none;fill-opacity:1;stroke:#242424;stroke-width:1.5;stroke-miterlimit:4;stroke-dasharray:none;stroke-opacity:1"
       d="m 40.424864,182.84985 c 12.15023,-5.70996 26.462366,-13.87806 37.155053,-19.84299 12.26926,-6.84847 22.747143,-13.39846 35.340783,-19.63045 3.52822,-1.74599 7.59433,-2.19922 11.11249,-4.14602 5.0337,-2.78554 10.60662,-5.8637 16.40417,-6.57569 9.28344,-1.14009 19.60748,3.95234 23.45558,12.62433 2.43126,5.47899 -0.0998,12.6111 -4.93474,15.84747 -14.13933,9.46442 -31.26529,14.79101 -42.4352,28.33794 -3.7928,4.59978 -7.47765,9.92372 -9.42234,15.61041 -0.31724,0.9279 -2.02327,5.15568 -0.44979,5.62187 0.78581,0.23283 1.56369,-0.78449 2.06031,-1.23746 1.48378,-1.35387 2.91862,-2.73288 4.4741,-4.00764 6.13093,-5.02311 13.03866,-9.18686 20.10833,-12.74657 12.10866,-6.09732 27.06609,-10.83468 36.48869,-20.9677 13.47417,-14.48963 10.24864,-39.36602 -7.11993,-49.36383 -3.86054,-2.22224 -8.26453,-3.61315 -12.7,-4.03702 -2.37385,-0.22701 -4.80616,0.24686 -7.14375,-0.30956 2.05131,-5.00036 3.09694,-10.7315 2.45665,-16.13958 -0.99457,-8.403433 -3.35412,-16.145143 -8.92282,-22.754173 -13.05851,-15.498076 -36.544776,-17.905961 -52.800506,-6.23668 -12.24015,8.78671 -15.87976,23.56451 -20.11508,37.192933 -4.93522,15.88082 -9.83948,31.7836 -14.90096,47.625 -2.65084,8.29654 -6.14914,16.65499 -8.11104,25.13541 m 83.343746,-70.11457 c -12.23247,1.88815 -34.766724,-21.580221 -35.958726,-9.26042 l 1.29831,7.40833 c 0.11139,-1.67931 -0.70829,-3.32713 -0.78343,-5.02708 -0.24342,-5.51418 0.9898,-10.633603 4.79742,-14.815663 8.603996,-9.45042 24.600176,-7.20916 30.560966,3.96774 3.16309,5.931173 2.13068,11.718403 0.0855,17.727093 m -34.395836,-1.85209 c 0.50827,2.84956 2.88819,5.60361 5.03105,7.42924 6.883406,5.86502 17.125166,6.22459 24.337706,0.7104 2.07037,-1.58273 4.26773,-3.72506 5.02708,-6.28755 h -0.26459 c -5.11676,9.1813 -17.14287,12.75529 -26.193746,7.12628 -3.81555,-2.37278 -5.23504,-5.71685 -7.9375,-8.97837 z"
       id="path22"
       sodipodi:nodetypes="ccccsssccsccccscccsccsccccccccccccccc" />
    <ellipse
       style="fill:#242424;fill-rule:evenodd;stroke-width:1.5;stroke:#242424;stroke-miterlimit:4;stroke-dasharray:none;stroke-linejoin:round;stroke-linecap:round;fill-opacity:1;stroke-opacity:1"
       id="path88"
       cx="106.44755"
       cy="104.27417"
       rx="19.513021"
       ry="19.796503" />
    <circle
       style="fill:none;fill-opacity:1;fill-rule:evenodd;stroke:#242424;stroke-width:1.5;stroke-miterlimit:4;stroke-dasharray:none;stroke-opacity:1"
       id="path926"
       cx="106.21132"
       cy="104.32142"
       r="38.931549" />
    <path
       style="fill:#242424;fill-opacity:1;stroke:#242424;stroke-width:2.69966;stroke-linecap:round;stroke-linejoin:round;stroke-miterlimit:4;stroke-dasharray:none;stroke-opacity:1"
       d=""
       id="path2879"
       transform="scale(0.26458333)" />
    <path
       style="fill:#242424;fill-opacity:1;stroke:#242424;stroke-width:5.66929141;stroke-linecap:round;stroke-linejoin:round;stroke-miterlimit:4;stroke-dasharray:none;stroke-opacity:1"
       d="m 403.04334,793.15504 c -1.67531,-3.67691 5.21335,-23.62657 13.25585,-38.38908 11.90905,-21.85984 31.99024,-46.57217 50.22163,-61.8038 19.02901,-15.898 36.43022,-26.77568 81.31728,-50.83227 36.26851,-19.43761 53.31797,-29.75372 60.58924,-36.66071 6.66901,-6.33491 11.55671,-14.62411 14.74726,-25.01031 1.27893,-4.16332 1.38109,-5.15123 1.40446,-13.58129 0.029,-10.47388 -0.41082,-12.68481 -4.06518,-20.43376 -3.68021,-7.80377 -8.28579,-14.21865 -15.07393,-20.99574 -7.44463,-7.43249 -13.41936,-11.73212 -23.03436,-16.57629 -25.54363,-12.86924 -52.08135,-13.47265 -80.32384,-1.82639 -1.99513,0.82273 -3.74996,1.49587 -3.8996,1.49587 -0.14965,0 2.37671,-2.51511 5.61414,-5.58915 15.26185,-14.49159 27.55858,-32.22536 35.45946,-51.13795 1.3534,-3.2397 1.51395,-3.42022 2.7372,-3.07783 0.71471,0.20006 6.75429,0.41273 13.42129,0.47261 13.68794,0.12294 20.06294,0.93662 31.08538,3.96758 7.98205,2.19492 14.17242,4.61819 22.20017,8.69042 11.32523,5.74495 19.71291,11.92971 28.84939,21.27245 16.68506,17.06174 27.34324,38.31034 31.77473,63.34744 1.55711,8.79737 1.94315,26.40261 0.77383,35.29049 -2.89511,22.00543 -9.95112,39.74184 -22.62859,56.88061 -4.79346,6.4803 -16.19806,18.05181 -23.46696,23.81039 -20.0125,15.85433 -38.54849,26.07803 -86.26562,47.58055 -45.86503,20.66794 -74.13874,36.49761 -100.1205,56.05474 -10.18752,7.6684 -14.1166,10.95781 -24.5131,20.52229 -4.65634,4.28369 -8.69551,7.78853 -8.97593,7.78853 -0.28043,0 -0.76809,-0.56673 -1.0837,-1.2594 z"
       id="path2881"
       transform="scale(0.26458333)" />
    <path
       style="fill:#242424;fill-opacity:1;stroke:#242424;stroke-width:5.66929141;stroke-linecap:round;stroke-linejoin:round;stroke-miterlimit:4;stroke-dasharray:none;stroke-opacity:1"
       d="m 494.8459,510.44281 c 0.036,-0.0327 0.39685,-0.32795 0.80198,-0.65615 0.40513,-0.32821 0.91078,-0.74344 1.12366,-0.92273 0.21288,-0.1793 0.39642,-0.32599 0.40788,-0.32599 0.0115,0 0.0341,0.0887 0.0504,0.1972 0.0163,0.10847 0.0875,0.27713 0.15821,0.3748 l 0.12864,0.17758 -0.72234,0.32427 c -0.39729,0.17834 -1.00078,0.45165 -1.3411,0.60735 -0.64809,0.2965 -0.71428,0.32088 -0.60733,0.22367 z"
       id="path2883"
       transform="scale(0.26458333)" />
    <path
       style="fill:#1a1a1a;fill-opacity:1;stroke:#242424;stroke-width:0.168729;stroke-linecap:round;stroke-linejoin:round;stroke-miterlimit:4;stroke-dasharray:none;stroke-opacity:1"
       d=""
       id="path2885"
       transform="scale(0.26458333)" />
    <path
       style="fill:#1a1a1a;fill-opacity:1;stroke:#242424;stroke-width:5.66929141;stroke-linecap:round;stroke-linejoin:round;stroke-miterlimit:4;stroke-dasharray:none;stroke-opacity:1"
       d="m 389.60026,469.11375 c -27.40486,-5.33778 -49.42049,-24.67865 -58.74495,-51.6078 -2.54665,-7.35475 -2.80162,-9.39795 -2.83628,-22.72843 -0.0328,-12.61379 0.29064,-15.69405 2.32974,-22.18776 9.88467,-31.47877 36.08978,-52.43981 67.87537,-54.29241 33.47748,-1.95122 64.87874,19.66732 75.46636,51.95563 3.74852,11.43155 4.36354,29.89107 1.39209,41.78228 -5.6397,22.56911 -20.57294,41.11792 -41.02126,50.95317 -13.17043,6.33473 -30.86811,8.7729 -44.46107,6.12532 z"
       id="path2887"
       transform="scale(0.26458333)" />
    <path
       style="fill:#1a1a1a;fill-opacity:1;stroke:#242424;stroke-width:5.66929141;stroke-linecap:round;stroke-linejoin:round;stroke-miterlimit:4;stroke-dasharray:none;stroke-opacity:1"
       d="m 157.90931,681.23961 c 0.49706,-2.16071 6.65377,-20.96428 13.68158,-41.78571 12.62197,-37.39536 39.77774,-122.66127 65.89433,-206.90039 l 13.43325,-43.32897 0.99697,13.20675 c 2.81196,37.24944 16.11644,68.23047 40.40513,94.08805 28.95541,30.82574 66.98145,47.22027 109.52431,47.22027 h 14.41063 l -25.66919,14.04759 c -14.11804,7.72617 -48.81203,27.2474 -77.09774,43.38053 -28.28572,16.13311 -65.0841,36.80508 -81.77419,45.9377 -28.04762,15.34733 -72.17984,38.06275 -73.94946,38.06275 -0.41765,0 -0.35267,-1.76785 0.14438,-3.92857 z"
       id="path2895"
       transform="scale(0.26458333)" />
  </g>
  <g
     inkscape:groupmode="layer"
     id="layer2"
     inkscape:label="Layer 2" />
</svg>
