<?xml version="1.0" encoding="utf-8"?><svg xmlns="http://www.w3.org/2000/svg" xmlns:xlink="http://www.w3.org/1999/xlink" width="1842" height="1009" preserveAspectRatio="xMidYMid" viewBox="0 0 1842 1009" style="z-index:1;margin-right:-2px;display:block;background-repeat-y:initial;background-repeat-x:initial;background-color:rgb(241, 242, 243);animation-play-state:paused" ><g transform="translate(921,504.5) scale(1,1) translate(-921,-504.5)" style="transform:matrix(1, 0, 0, 1, 0, 0);animation-play-state:paused" ><linearGradient id="lg-0.9016239599817062" x1="0" x2="1" y1="0" y2="0" style="animation-play-state:paused" ><stop stop-color="#93dbe9" offset="0" style="animation-play-state:paused" ></stop>

  
<stop stop-color="#689cc5" offset="1" style="animation-play-state:paused" ></stop></linearGradient>
<path d="M 0 0 L 0 969.781 Q 184.2 826.172 368.4 811.124 T 736.8 769.522 T 1105.2 562.248 T 1473.6 539.882 T 1842 352.854 L 1842 0 Z" fill="url(#lg-0.9016239599817062)" opacity="0.4" style="opacity:0.4;animation-play-state:paused" ></path>
<path d="M 0 0 L 0 947.276 Q 184.2 886.728 368.4 850.235 T 736.8 654.536 T 1105.2 592.843 T 1473.6 524.416 T 1842 464.151 L 1842 0 Z" fill="url(#lg-0.9016239599817062)" opacity="0.4" style="opacity:0.4;animation-play-state:paused" ></path>
<path d="M 0 0 L 0 829.911 Q 184.2 886.02 368.4 866.879 T 736.8 797.359 T 1105.2 648.685 T 1473.6 509.452 T 1842 522.962 L 1842 0 Z" fill="url(#lg-0.9016239599817062)" opacity="0.4" style="opacity:0.4;animation-play-state:paused" ></path>
<path d="M 0 0 L 0 954.765 Q 184.2 810.613 368.4 775.262 T 736.8 728.768 T 1105.2 551.948 T 1473.6 566.857 T 1842 434.814 L 1842 0 Z" fill="url(#lg-0.9016239599817062)" opacity="0.4" style="opacity:0.4;animation-play-state:paused" ></path>
<path d="M 0 0 L 0 985.24 Q 184.2 805.987 368.4 771.849 T 736.8 660.174 T 1105.2 597.645 T 1473.6 565.666 T 1842 431.357 L 1842 0 Z" fill="url(#lg-0.9016239599817062)" opacity="0.4" style="opacity:0.4;animation-play-state:paused" ></path></g></svg>